<?xml version="1.0" encoding="UTF-8"?>
<svg version="1.1" xmlns="http://www.w3.org/2000/svg" width="607" height="1024">
<path d="M0 0 C14.72409329 13.07687737 24.32722026 28.35005587 28.7109375 47.51953125 C28.88751062 48.24921757 29.06408374 48.97890389 29.24600756 49.73070192 C29.82756246 53.21909278 29.85057043 56.63939236 29.84122276 60.16423798 C29.84316619 60.92996575 29.84510962 61.69569352 29.84711194 62.48462516 C29.85244093 65.0593873 29.85066857 67.63409591 29.84896851 70.2088623 C29.85138637 72.06989969 29.85424857 73.93093655 29.85751784 75.79197264 C29.86527711 80.91313534 29.86689058 86.03428464 29.86756897 91.15545249 C29.86940754 96.67562503 29.87701365 102.19578971 29.88404846 107.71595764 C29.89557778 117.28354291 29.90382006 126.85112641 29.91016769 136.41871643 C29.92048644 151.53432378 29.94104726 166.64990909 29.96328735 181.76550293 C29.97076707 186.93476098 29.97818077 192.10401911 29.98557472 197.27327728 C29.98742529 198.56512657 29.98927585 199.85697586 29.9911825 201.1879721 C30.01211231 215.89533215 30.03095337 230.60269455 30.04882812 245.31005859 C30.0496478 245.98216442 30.05046748 246.65427025 30.051312 247.34674292 C30.07040142 263.03155439 30.08736299 278.71636573 30.09967041 294.40118408 C30.10020008 295.07599206 30.10072975 295.75080004 30.10127546 296.44605674 C30.10552723 301.88557067 30.10970346 307.32508466 30.11386026 312.76459866 C30.13153637 335.81594432 30.16047787 358.86725807 30.2003094 381.91857767 C30.22374066 395.72664996 30.23770677 409.53466788 30.23963703 423.34276021 C30.24174197 432.79925502 30.2546339 442.25569567 30.27611636 451.71216619 C30.28817632 457.17297054 30.29527614 462.63366734 30.28940392 468.09448433 C30.2841285 473.08954022 30.2925169 478.08437625 30.31196029 483.07939535 C30.31655443 484.89021892 30.31604011 486.70106383 30.31001191 488.5118832 C30.30256742 490.96646326 30.31342238 493.42029829 30.32896996 495.87482452 C30.32240741 496.58382001 30.31584487 497.2928155 30.30908346 498.0232957 C30.36113421 502.33787811 31.00427316 505.12169323 33.7109375 508.51953125 C36.87612557 509.99023361 36.87612557 509.99023361 40.7109375 509.51953125 C44.06722239 507.8107238 46.90165602 505.55303318 49.8359375 503.20703125 C51.09760742 502.23733398 51.09760742 502.23733398 52.38476562 501.24804688 C54.84081602 499.35574179 57.27690082 497.44001637 59.7109375 495.51953125 C60.86282636 494.62793379 62.01623634 493.73829427 63.171875 492.8515625 C65.21492257 491.28382548 67.25393206 489.71081339 69.2890625 488.1328125 C74.26269037 484.30705973 79.34426451 480.62561103 84.40429688 476.91552734 C90.61280122 472.35329241 96.74285169 467.69669588 102.84960938 462.99951172 C107.52966186 459.40534653 112.27029527 455.90995249 117.05859375 452.4609375 C120.60099189 449.86804814 124.07039196 447.18401271 127.54199219 444.49780273 C131.73598713 441.25726539 135.96519497 438.06689401 140.2109375 434.89453125 C146.68009576 430.06057494 153.1066331 425.17272974 159.5234375 420.26953125 C165.63351189 415.60353786 171.75867863 410.97730735 178 406.48828125 C183.60340907 402.41894671 189.1185534 398.22963028 194.65234375 394.06640625 C196.61768284 392.58960496 198.58558235 391.11630594 200.5546875 389.64453125 C208.07678544 384.01976105 215.56127473 378.34860711 223.0234375 372.64453125 C230.65930266 366.80930867 238.35750093 361.06816799 246.10864258 355.38720703 C251.56679527 351.38100218 256.93838171 347.28162718 262.2890625 343.1328125 C266.46246029 339.92260286 270.715017 336.82025411 274.9609375 333.70703125 C281.09521488 329.20856117 287.18298623 324.65952336 293.2109375 320.01953125 C299.94434405 314.83701588 306.75711477 309.77284076 313.6184082 304.76098633 C317.50132092 301.91663294 321.34875978 299.04246331 325.12890625 296.0625 C346.59413125 279.14924855 368.16888089 269.3331565 396.21875 271.83203125 C416.32472762 274.30661311 433.72945028 282.98642237 447.7109375 297.51953125 C448.81501953 298.61201172 448.81501953 298.61201172 449.94140625 299.7265625 C464.47841046 314.88216263 469.94823496 334.37410164 470.0234375 354.89453125 C470.02605591 355.57149048 470.02867432 356.24844971 470.03137207 356.94592285 C470.03558333 367.07399778 469.4077962 375.98214925 465.7109375 385.51953125 C465.4221875 386.40511719 465.1334375 387.29070312 464.8359375 388.203125 C458.44849059 406.48148871 443.86297804 419.20160555 428.64941406 430.11425781 C425.78770347 432.18881779 423.00252884 434.35137222 420.2109375 436.51953125 C408.79580288 445.34031709 397.19388779 453.90847172 385.56787109 462.44824219 C380.0386483 466.51838015 374.58918387 470.6748658 369.1640625 474.8828125 C364.04180552 478.82312871 358.81308658 482.62267787 353.59570312 486.43554688 C349.75187392 489.25088325 345.94392414 492.09891568 342.19140625 495.03515625 C337.78732728 498.48101556 333.29164208 501.788065 328.7734375 505.08203125 C322.33850891 509.79557847 315.98643325 514.59586195 309.7109375 519.51953125 C302.88469238 524.87154629 295.96101108 530.06902325 288.96362305 535.19482422 C280.60233791 541.32033913 272.31714395 547.54539209 264.03320312 553.77490234 C261.90179672 555.37614606 259.76803119 556.97415764 257.6328125 558.5703125 C250.18904128 564.1367635 242.78311309 569.74987656 235.3984375 575.39453125 C228.5737937 580.61111214 221.70469114 585.75801616 214.7734375 590.83203125 C208.99835864 595.06205476 203.27712152 599.34609814 197.6484375 603.76953125 C196.78134155 604.4507605 196.78134155 604.4507605 195.89672852 605.14575195 C191.31957016 608.39864191 191.31957016 608.39864191 189.27734375 613.28125 C189.8377764 617.46682359 191.76854264 619.46730371 194.6484375 622.33203125 C195.14698242 622.85120117 195.64552734 623.37037109 196.15917969 623.90527344 C197.66044455 625.46012073 199.18115208 626.99278413 200.7109375 628.51953125 C201.53207031 629.34324219 202.35320312 630.16695312 203.19921875 631.015625 C204.68617395 632.49744391 206.17695854 633.97543185 207.671875 635.44921875 C209.564831 637.37118557 211.33434913 639.34409368 213.0859375 641.39453125 C215.97310486 644.76513128 219.05366448 647.90429135 222.2109375 651.01953125 C225.91223465 654.67666167 229.45532119 658.40670716 232.83984375 662.359375 C238.92453575 669.38408205 245.27450894 676.15869025 251.8984375 682.67578125 C253.67218865 684.48011432 255.31986812 686.34443063 256.9609375 688.26953125 C260.0465534 691.8646984 263.34291041 695.19291221 266.7109375 698.51953125 C270.60990668 702.37074089 274.31918062 706.2837487 277.87109375 710.4609375 C280.21589894 713.08453056 282.70742764 715.54923336 285.2109375 718.01953125 C290.58262075 723.32656125 295.54247397 728.87794288 300.3359375 734.70703125 C303.39519969 738.32984174 306.76518122 741.58745955 310.140625 744.9140625 C314.56911627 749.2930339 318.82144003 753.72427005 322.8671875 758.45703125 C325.05890063 760.90877814 327.37160854 763.20838698 329.7109375 765.51953125 C332.62147551 768.39510784 335.43517772 771.27827219 338.0859375 774.39453125 C341.12524451 777.95239301 344.38457118 781.23395422 347.7109375 784.51953125 C351.63158586 788.39210299 355.36497938 792.32745366 358.9375 796.52734375 C361.8338374 799.78093863 364.96609022 802.79428521 368.0859375 805.83203125 C370.79315894 808.60371034 373.32233926 811.48342788 375.859375 814.40966797 C378.89888232 817.87319938 382.05361078 821.226151 385.2109375 824.58203125 C385.83613281 825.25041016 386.46132813 825.91878906 387.10546875 826.60742188 C390.17834929 829.88070767 393.28263521 833.11003861 396.46875 836.2734375 C398.78117139 838.56993581 400.98831171 840.89735768 403.0859375 843.39453125 C405.67727955 846.40420655 408.38348533 849.23041741 411.2109375 852.01953125 C415.2593926 856.02695471 419.03149456 860.17398226 422.7109375 864.51953125 C423.4328125 865.3290625 424.1546875 866.13859375 424.8984375 866.97265625 C441.52318747 886.18098222 445.1115951 908.9137097 443.7109375 933.51953125 C441.47427164 954.55396814 429.44218683 973.5694262 413.6875 987.23828125 C395.00153904 1001.5592802 371.90861446 1007.59848533 348.5859375 1004.89453125 C320.89135506 1001.10918552 300.953705 983.99550272 283.453125 963.48046875 C281.4565586 961.2332124 279.35080804 959.13058198 277.2109375 957.01953125 C273.88617789 953.73388646 270.76508441 950.35865557 267.71875 946.81640625 C261.23959405 939.40445353 254.50194472 932.22721591 247.484375 925.32421875 C245.74433478 923.55351702 244.13161267 921.72261766 242.5234375 919.83203125 C239.26663749 916.03617469 235.76481896 912.53330118 232.2109375 909.01953125 C228.11290993 904.96765264 224.17966158 900.87348644 220.44921875 896.4765625 C217.49490429 893.15046914 214.28075131 890.08247983 211.1171875 886.95703125 C208.46133997 884.26669219 206.00958318 881.453796 203.5546875 878.58203125 C201.36297437 876.13028436 199.05026646 873.83067552 196.7109375 871.51953125 C193.25243565 868.09727118 189.98465833 864.60970555 186.8203125 860.91796875 C183.84760855 857.53789426 180.78099529 854.24861888 177.7109375 850.95703125 C177.12924805 850.33159424 176.54755859 849.70615723 175.94824219 849.06176758 C173.00844475 845.91664702 170.03173035 842.82248825 166.9765625 839.7890625 C164.697241 837.52530493 162.52118148 835.23729601 160.4609375 832.76953125 C157.52814109 829.36114623 154.41020462 826.17554311 151.2109375 823.01953125 C148.11600769 819.96616505 145.09159393 816.89629346 142.2734375 813.58203125 C139.25738197 810.04270825 136.01623977 806.78484594 132.7109375 803.51953125 C128.16084978 799.01915978 123.84486576 794.40879455 119.7109375 789.51953125 C118.50579674 788.12094057 117.29743277 786.7251211 116.0859375 785.33203125 C115.55742187 784.71972656 115.02890625 784.10742188 114.484375 783.4765625 C111.54448854 780.23232657 108.39867745 777.19731998 105.28125 774.125 C100.83107825 769.72459055 96.55484156 765.27110847 92.48828125 760.515625 C90.47824973 758.25820499 88.36260797 756.14217412 86.2109375 754.01953125 C83.44533342 751.29123718 80.79806719 748.53436291 78.2734375 745.58203125 C75.55474502 742.40917205 72.68342075 739.45614743 69.7109375 736.51953125 C66.77975559 733.62361167 63.94690576 730.71710554 61.2734375 727.58203125 C57.51741165 723.18211526 53.39517049 719.17272078 49.26171875 715.1328125 C46.7109375 712.51953125 46.7109375 712.51953125 44.50390625 709.75 C42.90405313 707.44236909 42.90405313 707.44236909 40.7109375 706.51953125 C36.53777176 706.09110372 36.53777176 706.09110372 32.8984375 707.83203125 C30.01478924 711.92984719 30.5698075 716.49311063 30.57963562 721.27653503 C30.57751991 722.18252498 30.57540419 723.08851493 30.57322437 724.02195913 C30.5672126 727.07088515 30.56822539 730.11976992 30.5690918 733.16870117 C30.56606088 735.3500526 30.56253962 737.53140339 30.55856323 739.7127533 C30.5506654 744.41902423 30.54552584 749.12528756 30.54227257 753.83156395 C30.5363632 761.28391717 30.51982099 768.73622259 30.50093079 776.18855286 C30.49459287 778.74069115 30.48826726 781.29282948 30.48195362 783.84496784 C30.47878781 785.12339609 30.475622 786.40182433 30.47236025 787.71899283 C30.45632612 794.33601539 30.44165482 800.95304053 30.42797852 807.57006836 C30.42660264 808.2340726 30.42522677 808.89807683 30.42380921 809.58220241 C30.4032962 819.6461899 30.39211943 829.71016498 30.38500977 839.77416992 C30.37661031 851.47375359 30.35404538 863.17321958 30.3156541 874.87274438 C30.29594839 881.06043017 30.28347045 887.24794025 30.28848839 893.43565941 C30.29315961 899.26749424 30.2791947 905.09899716 30.25147629 910.93076515 C30.24460461 913.06067439 30.2443941 915.19061825 30.25167656 917.32052612 C30.29882774 932.67286398 29.33748303 947.22018521 21.8359375 961.01953125 C21.48789063 961.68476807 21.13984375 962.35000488 20.78125 963.03540039 C18.18138922 967.89998365 15.32935847 972.34372726 11.7109375 976.51953125 C10.82148438 977.60427734 10.82148438 977.60427734 9.9140625 978.7109375 C-2.89353763 993.84952085 -20.5865404 1003.8837083 -40.2890625 1006.51953125 C-54.61560153 1007.69542941 -68.71230587 1007.60861383 -82.2890625 1002.51953125 C-83.19011719 1002.21917969 -84.09117188 1001.91882813 -85.01953125 1001.609375 C-96.10293272 997.63997075 -104.87151998 990.56103235 -113.2890625 982.51953125 C-113.91554688 981.9678125 -114.54203125 981.41609375 -115.1875 980.84765625 C-128.51897942 968.66232212 -135.07366657 949.99355752 -137.2890625 932.51953125 C-137.37477983 930.3644598 -137.41569225 928.20723938 -137.416713 926.05046415 C-137.41972897 924.78290301 -137.42274494 923.51534187 -137.4258523 922.20936978 C-137.42415356 920.8126729 -137.42236284 919.41597613 -137.42049026 918.01927948 C-137.42214095 916.5217049 -137.4242277 915.02413075 -137.42671037 913.52655733 C-137.4322733 909.4010131 -137.43160528 905.27548964 -137.42993278 901.14994287 C-137.42920165 896.66539597 -137.43422468 892.18085492 -137.4385078 887.69631052 C-137.44608891 878.79711111 -137.44828091 869.89791771 -137.44883685 860.99871541 C-137.44975038 850.34107712 -137.45641759 839.68344439 -137.46318367 829.02580849 C-137.47924709 803.26596694 -137.4851473 777.50612597 -137.48993242 751.74628031 C-137.49226798 739.5613789 -137.49587058 727.37647796 -137.4996278 715.19157692 C-137.51246347 673.48543284 -137.52318276 631.77928902 -137.5266304 590.07314301 C-137.52685203 587.45485192 -137.52707382 584.83656083 -137.52729575 582.21826974 C-137.52751639 579.59363757 -137.52773688 576.9690054 -137.5279572 574.34437323 C-137.52839976 569.078866 -137.52884687 563.81335878 -137.52929688 558.54785156 C-137.52940627 557.24231095 -137.52951566 555.93677034 -137.52962836 554.5916679 C-137.53325931 512.25570298 -137.54918073 469.91975518 -137.57248724 427.58379682 C-137.5970804 382.82887529 -137.610803 338.07396354 -137.61199832 293.31903505 C-137.61216978 288.40654278 -137.6123852 283.4940505 -137.61263275 278.58155823 C-137.61268852 277.37195525 -137.61274429 276.16235228 -137.61280175 274.91609467 C-137.61395263 255.4459387 -137.62497776 235.97580029 -137.63951981 216.50565024 C-137.6538825 196.93733474 -137.65712306 177.36904175 -137.64907983 157.80072242 C-137.64462255 146.17499069 -137.64848818 134.54933165 -137.66431834 122.92360946 C-137.67406753 115.15532689 -137.67289063 107.38709524 -137.66288211 99.61881313 C-137.6574897 95.19430976 -137.65678123 90.76994597 -137.66939083 86.34545416 C-137.68078634 82.31323441 -137.67814381 78.28126694 -137.66472375 74.24905564 C-137.66230599 72.80627276 -137.66481575 71.36347007 -137.67312023 69.92070906 C-137.80387381 45.58736714 -130.42131076 24.14302677 -113.2890625 6.51953125 C-112.71414062 5.88273437 -112.13921875 5.2459375 -111.546875 4.58984375 C-106.80835539 -0.51143334 -101.29427772 -4.01469295 -95.2890625 -7.48046875 C-93.896875 -8.28871094 -93.896875 -8.28871094 -92.4765625 -9.11328125 C-63.28565401 -24.89858231 -25.84635499 -20.08249648 0 0 Z " fill="#FEFEFE" transform="translate(137.2890625,17.48046875)"/>
<path d="M0 0 C4.95833824 4.42654436 9.16533907 9.06397055 12.93798828 14.55493164 C13.33469727 15.13227051 13.73140625 15.70960937 14.14013672 16.30444336 C30.81413102 40.89890051 37.41776097 69.66898722 31.75366211 99.18994141 C30.96611465 102.69588413 30.01503036 106.12765536 28.93798828 109.55493164 C28.58736328 110.68415039 28.23673828 111.81336914 27.87548828 112.97680664 C22.73460998 127.61402957 14.55495714 140.32641958 3.93798828 151.55493164 C3.40592773 152.12066895 2.87386719 152.68640625 2.32568359 153.26928711 C-16.18909303 172.40821626 -42.30577358 183.32742136 -68.83935547 183.84741211 C-97.18786008 184.04242699 -122.80149191 175.75694424 -144.06201172 156.55493164 C-144.90376953 155.79567383 -145.74552734 155.03641602 -146.61279297 154.25415039 C-167.40709611 134.49471148 -177.83134826 107.9367396 -179.06201172 79.55493164 C-179.58418781 52.77727234 -169.74629964 26.31964579 -151.29638672 6.85180664 C-150.55904297 6.09383789 -149.82169922 5.33586914 -149.06201172 4.55493164 C-148.36591797 3.79696289 -147.66982422 3.03899414 -146.95263672 2.25805664 C-107.40082407 -39.60335091 -41.483973 -35.94495155 0 0 Z " fill="#077CFE" transform="translate(443.06201171875,68.445068359375)"/>
</svg>
